<?xml version="1.0" encoding="UTF-8"?><svg id="Layer_2" xmlns="http://www.w3.org/2000/svg" viewBox="0 0 886.02 356.32"><defs><style>.cls-1{fill:#fff;}</style></defs><g id="Layer_1-2"><path class="cls-1" d="M604.62,29.99l-81.15,49.85,53.02-52.68c13.69-12.73-6.96-34.52-21.06-24.67l-86.46,94.28c-1.28,1.07-2.73-.47-4.28-.61-6.25-.55-11.33.64-15.93,5.05-1.13,1.08-3.41,4.99-4.2,5.48-.42.26-3.76-.43-5.1-.34-4.85.33-9.58,2.98-12.61,6.68-.82,1-2.06,3.89-2.56,4.21-1.43.92-5.12.43-7.32.97-10.85,2.66-18.37,20.51-9.16,28.8l-33.42,20.78-22.32,27.07c-1.05,3.82.72,6.43,4.78,6.03,8.43-.83,26.5-9.03,30.8-10.81l31.61-22.9c-3.78,14.75-8.68,30.12.13,44.15,3.01,4.8,8.68,8.9,10.84,13.86,8.88,20.38-15,31.75-17.43,49.66-2.24,16.55,4.19,18.35,10.19,30.46,10.67,21.55-15.39,25.59-16.91,41.13-.25,2.57.02,5.72,2.93,6.61,5.68,1.73,5.32-6.18,6.98-9.35,3.45-6.59,11.43-8.92,15.24-17.89,10.04-23.63-12.08-29.49-10.15-48.7,1.38-13.7,17.98-23.65,19.29-38.53,2.08-23.6-15.83-25.29-17.48-42.19-1.72-17.6,14.33-41.53,5.2-56.4-4-6.52-12.53-6.89-11.84,1.89-8.52-1.99-3.3-14.6,3.97-15.6,10.86-1.51,20.29,7.94,21.33,18.32,1.62,16.33-8.95,30.77-5.25,48.02,4.09,19.08,26.54,28.4,19.22,50.27-2.58,7.69-9.38,14.29-12.67,21.66-12.76,28.59,17.22,38.76,9.57,61.38-2.77,8.2-11.28,13.28-13.1,21.83-.64,3.01-1.2,8.28,3.19,8.56,5.1.33,5.05-6.96,6.64-10.17,2.62-5.29,8.06-8.9,10.59-15.31,11.38-28.84-20.21-38.34-8.97-63.18,6.6-14.57,16.15-18.24,14.21-37.45-1.72-17.01-18.52-25.46-20.74-40.7-1.77-12.16,3.92-22.63,5.59-34.23,2.23-15.51-3.2-29.31-17.89-35.97,8.37-10.78,23.25.46,27.8,9.53,11.49,22.91-15.92,45.46,1.8,71.08,5.05,7.3,12.26,10.97,15.57,19.97,8.44,22.95-14.29,38.11-9.38,61.18,3.56,16.73,20.55,22.52,14.81,42.45-2.79,9.69-11.45,17.4-8.79,28.63,1.14,4.83,7.5,6.08,8.18.27.31-2.64-.37-5.61.13-8.3,1.08-5.85,7.78-12.63,9.33-20.79,5.01-26.42-19.48-32.24-15.34-55.1,2.94-16.22,14.26-24.7,11.23-44.07-2.12-13.56-8.78-17.03-16.51-26.26-15.36-18.32-.99-33.86.3-53.32.93-13.98-5.77-28.44-18.66-34.64,2.55-5.72,7.97-6.6,13.47-4.13,9.35,4.21,15.76,16.9,16.63,26.74,1.65,18.62-13.44,38.53-3.93,56.94,5.49,10.63,17.34,13.44,21.24,25.75,7.45,23.51-16.72,40.81-7.67,64.9,3.63,9.66,15.21,18.05,16.73,27.84,2.24,14.39-8.43,23.97-3.15,38.09,3.54,9.46,13.15,8.03,11.01,1.04-.29-.94-2.26-2.43-3.01-4.22-3.63-8.68,2.79-16.34,3.66-24.89,3-29.61-26.25-31.48-16.96-60.93,4.52-14.34,10.95-20.62,9.04-37.61-2.37-21.08-23.9-25.75-25.67-41.19-1.7-14.86,9.61-31.64,6.69-46.85l129.56-73.36c11.68-8.85-2.19-30.87-15.42-28.06ZM370.48,187.06c-1.01-.99,5.76-9.07,6.93-10.23l3.91,7.22c-3.72.57-7.03,3-10.84,3.01ZM422.87,148.51l-.13,5.29-34.82,25.15-3.97-6.32.31-.95,38.6-23.17ZM598.11,60.66l-5.34,2.99c-1.58-5.39-5.19-9.41-7.72-11.69l5.23-3.27c1.93,1.52,6.79,5.9,7.82,11.98ZM542.09,29.46l5.07-5.55c3.05,1.08,8.69,3.75,11.25,9.13-1.63,1.61-3.26,3.23-4.88,4.84-3.32-4.57-8.13-7.13-11.44-8.43ZM560.2,9.66c4.93-4.55,15.76,5.32,10.86,10.85-2.92,2.89-5.83,5.78-8.75,8.67-2.97-4.98-7.75-7.88-11.33-9.44l9.23-10.09ZM482.19,108.14l-6.3-6.31,62.34-68.15c2.29.68,8.25,2.89,11.51,7.96-15.23,15.11-30.45,30.22-45.76,45.22-7.24,7.1-14.79,13.92-21.79,21.28ZM488.54,122.01l-2.95-7.04.53-1.07,94.27-59.01c1.95,1.57,6.46,5.73,7.64,11.43l-99.49,55.69ZM616.14,49.9l-1.13,1.31-12.1,6.77c-1.53-5.68-5.34-9.91-7.94-12.23l11.19-7c1.81-1.03,3.61-.36,5.04.95,1.73,1.59,5.62,7.92,4.94,10.2Z"/><path class="cls-1" d="M23.03,245.42c0-1.9,1.38-4.36,4.14-7.36,2.76-3,6.18-6.4,10.27-10.21,4.09-3.81,8.56-7.95,13.42-12.43,4.86-4.48,9.33-9.12,13.42-13.93,4.09-4.81,7.51-9.71,10.27-14.71,2.76-5,4.14-9.93,4.14-14.78,0-2.57-.83-4.78-2.49-6.64-1.66-1.86-3.78-3.45-6.38-4.79-2.6-1.33-5.53-2.38-8.78-3.14-3.26-.76-6.55-1.36-9.86-1.79-3.31-.43-6.46-.71-9.44-.86-2.98-.14-5.53-.21-7.62-.21-.55,0-1.27.02-2.15.07-.89.05-1.8.1-2.73.14-.94.05-1.8.12-2.57.21-.77.1-1.22.14-1.33.14l-2.15,1.71c0,.19-.03,1-.08,2.43-.06,1.43-.11,3.05-.17,4.86-.06,1.81-.08,3.67-.08,5.57v4.43c0,9.62.41,19.16,1.24,28.64.83,9.48,1.24,19.02,1.24,28.64,0,.57.03,1.19.08,1.86.05.67.03,1.31-.08,1.93-.11.62-.41,1.14-.91,1.57s-1.24.64-2.24.64c-.66,0-1.33-.14-1.99-.43-.66-.28-1.05-.76-1.16-1.43l-6.46-75.13c-.33.19-.91.45-1.74.79-.83.34-1.69.69-2.57,1.07-.89.38-1.74.79-2.57,1.21-.83.43-1.35.64-1.57.64-.11,0-.31.02-.58.07-.28.05-.47.07-.58.07-.56,0-1.19-.12-1.91-.36-.72-.24-1.08-.79-1.08-1.64,0-1.43.36-2.59,1.08-3.5.72-.9,1.66-1.74,2.82-2.5,1.16-.76,2.4-1.52,3.73-2.29,1.32-.76,2.57-1.74,3.73-2.93,1.16-1.19,2.1-2.69,2.82-4.5.72-1.81,1.08-4.09,1.08-6.86,2.21,0,3.59.34,4.14,1,.55.67.88,1.45.99,2.36.11.91.25,1.81.41,2.71.17.91.97,1.55,2.4,1.93,3.09-.09,6.82-.09,11.18,0,4.36.1,8.95.41,13.75.93,4.8.52,9.55,1.31,14.25,2.36,4.69,1.05,8.89,2.52,12.59,4.43,3.7,1.91,6.63,4.31,8.78,7.21,2.15,2.91,3.12,6.45,2.9,10.64-1.44,7.33-4.17,14.38-8.2,21.14-4.03,6.76-8.78,13.26-14.25,19.5-5.47,6.24-11.38,12.21-17.73,17.93-6.35,5.71-12.68,11.19-18.97,16.43-.11,0-.28.02-.5.07-.22.05-.39.07-.5.07-.99,0-1.82-.28-2.49-.86-.66-.57-.99-1.28-.99-2.14Z"/><path class="cls-1" d="M94.61,228.71c-.77-4.38-1.16-8.64-1.16-12.78s.3-8.36.91-12.64c.61-4.28,1.49-8.74,2.65-13.35,1.16-4.62,2.51-9.59,4.06-14.93,0-1.05.33-2.02.99-2.93.66-.9,1.55-1.67,2.65-2.29,1.1-.62,2.26-1.12,3.48-1.5,1.21-.38,2.37-.57,3.48-.57,2.43,0,4.64.67,6.63,2,1.99,1.33,3.78,2.95,5.38,4.86,1.6,1.91,2.98,3.93,4.14,6.07,1.16,2.14,2.13,3.98,2.9,5.5.88,3.33,1.52,7.12,1.91,11.36.38,4.24.41,8.55.08,12.93-.33,4.38-1.11,8.69-2.32,12.93-1.22,4.24-2.93,8.12-5.14,11.64-2.21,3.52-5.05,6.48-8.53,8.86-3.48,2.38-7.6,3.86-12.34,4.43-2.54,0-4.47-.74-5.8-2.21-1.33-1.47-2.29-3.29-2.9-5.43-.61-2.14-.94-4.31-.99-6.5-.06-2.19-.08-4-.08-5.43ZM103.05,228.28c0,.95.03,1.86.08,2.71.05.86.17,1.69.33,2.5.17.81.38,1.67.66,2.57.28.91.63,1.93,1.08,3.07h.99c2.65,0,4.91-.76,6.79-2.29,1.88-1.52,3.48-3.5,4.81-5.93s2.43-5.14,3.31-8.14c.88-3,1.57-5.95,2.07-8.86.5-2.9.83-5.62.99-8.14.17-2.52.25-4.55.25-6.07v-2.86c0-1.24-.06-2.64-.17-4.21-.11-1.57-.3-3.19-.58-4.86-.28-1.67-.69-3.19-1.24-4.57-.55-1.38-1.27-2.5-2.15-3.36-.89-.86-2.05-1.29-3.48-1.29-2.43-.66-4.5-.52-6.21.43-1.71.95-3.09,2.55-4.14,4.79-1.05,2.24-1.85,4.98-2.4,8.21-.55,3.24-.89,6.81-.99,10.71-.11,3.91-.14,8.05-.08,12.43.05,4.38.08,8.76.08,13.14Z"/><path class="cls-1" d="M139.84,228.71c-.77-4.38-1.16-8.64-1.16-12.78s.3-8.36.91-12.64c.61-4.28,1.49-8.74,2.65-13.35,1.16-4.62,2.51-9.59,4.06-14.93,0-1.05.33-2.02.99-2.93.66-.9,1.55-1.67,2.65-2.29,1.1-.62,2.26-1.12,3.48-1.5,1.21-.38,2.37-.57,3.48-.57,2.43,0,4.64.67,6.63,2,1.99,1.33,3.78,2.95,5.38,4.86,1.6,1.91,2.98,3.93,4.14,6.07,1.16,2.14,2.13,3.98,2.9,5.5.88,3.33,1.52,7.12,1.91,11.36.38,4.24.41,8.55.08,12.93-.33,4.38-1.11,8.69-2.32,12.93-1.22,4.24-2.93,8.12-5.14,11.64-2.21,3.52-5.05,6.48-8.53,8.86-3.48,2.38-7.6,3.86-12.34,4.43-2.54,0-4.47-.74-5.8-2.21-1.33-1.47-2.29-3.29-2.9-5.43-.61-2.14-.94-4.31-.99-6.5-.06-2.19-.08-4-.08-5.43ZM148.29,228.28c0,.95.03,1.86.08,2.71.05.86.17,1.69.33,2.5.17.81.38,1.67.66,2.57.28.91.63,1.93,1.08,3.07h.99c2.65,0,4.91-.76,6.79-2.29,1.88-1.52,3.48-3.5,4.81-5.93s2.43-5.14,3.31-8.14c.88-3,1.57-5.95,2.07-8.86.5-2.9.83-5.62.99-8.14.17-2.52.25-4.55.25-6.07v-2.86c0-1.24-.06-2.64-.17-4.21-.11-1.57-.3-3.19-.58-4.86-.28-1.67-.69-3.19-1.24-4.57-.55-1.38-1.27-2.5-2.15-3.36-.89-.86-2.05-1.29-3.48-1.29-2.43-.66-4.5-.52-6.21.43-1.71.95-3.09,2.55-4.14,4.79-1.05,2.24-1.85,4.98-2.4,8.21-.55,3.24-.89,6.81-.99,10.71-.11,3.91-.14,8.05-.08,12.43.05,4.38.08,8.76.08,13.14Z"/><path class="cls-1" d="M221.52,222.14c-1.1,2.19-2.51,4.71-4.23,7.57-1.71,2.86-3.7,5.57-5.96,8.14-2.26,2.57-4.89,4.76-7.87,6.57-2.98,1.81-6.3,2.71-9.94,2.71-1.66,0-2.96-.17-3.89-.5-.94-.33-1.77-.83-2.49-1.5-.72-.66-1.38-1.47-1.99-2.43-.61-.95-1.35-2-2.24-3.14-.33-4.66-.53-9.69-.58-15.07-.06-5.38.25-10.76.91-16.14.66-5.38,1.79-10.45,3.4-15.21,1.6-4.76,3.87-8.81,6.79-12.14,2.93-3.33,6.6-5.71,11.02-7.14,4.42-1.43,9.78-1.52,16.07-.28.33-2.66.39-6.24.17-10.71-.22-4.47-.55-9.19-.99-14.14-.44-4.95-.89-9.73-1.33-14.35-.44-4.62-.72-8.4-.83-11.36,0-.86.47-1.5,1.41-1.93.94-.43,1.96-.69,3.06-.79,1.1-.09,2.18-.09,3.23,0,1.05.1,1.74.24,2.07.43-.22,11.71-.28,23.21-.17,34.5.11,11.28.25,22.52.41,33.71.17,11.19.36,22.31.58,33.35.22,11.05.33,22.09.33,33.14,0,1.05-.08,2.16-.25,3.36-.17,1.19-1.13,1.79-2.9,1.79-.66,0-1.33-.17-1.99-.5-.66-.33-1.1-.83-1.33-1.5l-.5-36.42ZM214.39,180.72c-3.43-.19-6.6.98-9.53,3.5-2.93,2.52-5.47,5.78-7.62,9.78-2.15,4-3.89,8.4-5.22,13.21-1.33,4.81-2.13,9.43-2.4,13.85-.28,4.43.05,8.36.99,11.78.94,3.43,2.62,5.76,5.05,7,2.43,0,4.69-.83,6.79-2.5,2.1-1.66,4.03-3.78,5.8-6.35,1.77-2.57,3.31-5.45,4.64-8.64,1.33-3.19,2.46-6.26,3.4-9.21.94-2.95,1.66-5.64,2.15-8.07.5-2.43.75-4.26.75-5.5,0-.95.05-2.47.17-4.57.11-2.09.05-4.19-.17-6.28-.22-2.09-.69-3.95-1.41-5.57-.72-1.62-1.85-2.43-3.4-2.43Z"/><path class="cls-1" d="M242.4,240.99c.77-4.38,1.3-9.86,1.57-16.43.27-6.57.39-13.57.33-21-.06-7.43-.25-15.09-.58-23-.33-7.9-.77-15.4-1.33-22.5-.55-7.09-1.19-13.45-1.9-19.07-.72-5.62-1.47-10.04-2.24-13.28.99-.57,1.85-1.02,2.57-1.36.72-.33,1.57-.5,2.57-.5.77,0,1.43.12,1.99.36.55.24.99.74,1.33,1.5,2.21,18.66,3.73,37.47,4.56,56.42.83,18.95,1.46,37.8,1.9,56.56v3.5c0,1.48-.06,2.26-.17,2.36-1.55.67-2.93.98-4.14.93-1.22-.05-2.32-.33-3.31-.86-.99-.52-1.77-1.12-2.32-1.79-.55-.67-.83-1.29-.83-1.86Z"/><path class="cls-1" d="M267.08,217.42c-.56.1-1.38.24-2.49.43-1.11.19-2.27.24-3.48.14-1.22-.09-2.29-.38-3.23-.86-.94-.48-1.41-1.28-1.41-2.43,0-.66.17-1.14.5-1.43.33-.28.89-.71,1.66-1.28,2.43-1.71,4.5-3.93,6.21-6.64,1.71-2.71,3.29-5.62,4.72-8.71,1.43-3.09,2.95-6.19,4.56-9.28,1.6-3.09,3.45-5.88,5.55-8.36,2.1-2.47,4.69-4.47,7.79-6,3.09-1.52,6.9-2.24,11.43-2.14,1.88,0,3.98.38,6.3,1.14,2.32.76,4.47,1.79,6.46,3.07,1.99,1.29,3.64,2.84,4.97,4.64,1.33,1.81,1.99,3.81,1.99,6,.55.76.03,1.86-1.57,3.29-1.6,1.43-3.78,2.98-6.54,4.64-2.76,1.67-5.88,3.38-9.36,5.14-3.48,1.76-6.82,3.41-10.02,4.93-3.2,1.52-6.02,2.86-8.45,4-2.43,1.14-4.03,2-4.8,2.57-.55.95-.99,2.05-1.33,3.29-.33,1.24-.58,2.41-.75,3.5-.17,1.1-.28,2.1-.33,3-.06.91-.08,1.6-.08,2.07,0,1.81-.08,3.81-.25,6-.17,2.19-.06,4.26.33,6.21.39,1.95,1.3,3.57,2.73,4.86,1.43,1.29,3.86,1.93,7.29,1.93,3.65,0,7.07-.79,10.27-2.36,3.2-1.57,6.18-3.5,8.95-5.78,2.76-2.29,5.27-4.76,7.54-7.43,2.26-2.66,4.31-5.16,6.13-7.5,1.82-2.33,3.45-4.26,4.89-5.79,1.43-1.52,2.65-2.29,3.65-2.29,1.1,0,2.29.17,3.56.5,1.27.33,1.9,1.12,1.9,2.36,0,1.71-.8,3.76-2.4,6.14-1.6,2.38-3.7,4.91-6.3,7.57-2.6,2.67-5.58,5.31-8.95,7.93-3.37,2.62-6.77,4.95-10.19,7-3.43,2.05-6.79,3.71-10.11,5-3.31,1.28-6.24,1.93-8.78,1.93-4.97,0-8.73-1.05-11.27-3.14-2.54-2.09-4.34-4.71-5.38-7.86-1.05-3.14-1.6-6.5-1.66-10.07-.06-3.57-.14-6.88-.25-9.93ZM297.57,178.86c-1.88,0-3.87.79-5.96,2.36-2.1,1.57-4.06,3.48-5.88,5.71-1.82,2.24-3.31,4.52-4.47,6.86-1.16,2.33-1.74,4.26-1.74,5.78,1.66,0,4.06-.55,7.21-1.64,3.15-1.09,6.27-2.45,9.36-4.07,3.09-1.62,5.8-3.33,8.12-5.14,2.32-1.81,3.48-3.52,3.48-5.14,0-.86-.39-1.57-1.16-2.14-.77-.57-1.69-1.05-2.73-1.43-1.05-.38-2.13-.66-3.23-.86-1.11-.19-2.1-.28-2.98-.28Z"/><path class="cls-1" d="M557.47,160.43v-6.86c1.33,0,2.82.38,4.48,1.14,1.66.76,3.26,1.67,4.81,2.71,1.54,1.05,2.98,2.21,4.31,3.5,1.32,1.28,2.37,2.36,3.15,3.21l48.88,56.7c.33-1.62.63-4.62.91-9,.27-4.38.39-9.36.33-14.93-.06-5.57-.22-11.4-.5-17.5-.28-6.09-.66-11.78-1.16-17.07-.5-5.29-1.05-9.76-1.66-13.43-.61-3.66-1.41-5.88-2.4-6.64,0-1.43.3-2.76.91-4,.6-1.24,1.79-1.86,3.56-1.86s3.2.86,4.31,2.57c1.1,1.71,1.93,3.64,2.48,5.79.55,2.14.97,4.24,1.24,6.28.27,2.05.42,3.41.42,4.07.11,1.71.22,4.31.33,7.78.11,3.48.22,7.43.33,11.86.11,4.43.25,9.12.42,14.07.17,4.95.33,9.62.5,14,.17,4.38.27,8.36.33,11.93.06,3.57.14,6.21.25,7.93,0,1.24.25,2.38.75,3.43.5,1.05.99,2.1,1.49,3.14.5,1.05.96,2.1,1.41,3.14.44,1.05.66,2.14.66,3.29,0,1.9-.8,3.31-2.4,4.21-1.6.91-3.4,1.36-5.38,1.36-1.11,0-2.07-.12-2.9-.36-.83-.24-1.49-.67-1.99-1.29-.5-.62-.77-1.4-.83-2.36-.06-.95.14-2.19.58-3.71-1.22-1.24-3.09-3.26-5.63-6.07-2.54-2.81-5.39-5.95-8.53-9.43-3.15-3.48-6.49-7.12-10.03-10.93-3.54-3.81-6.9-7.45-10.11-10.93-3.21-3.48-6.08-6.59-8.62-9.36l-5.63-6.14c-.22-.29-.61-.67-1.16-1.14l-3.98-3.43c-.55-.48-.99-.81-1.33-1-.44,5.52-.39,11.07.17,16.64.55,5.57,1.3,11.12,2.24,16.64.94,5.52,1.88,11.02,2.81,16.5.94,5.48,1.41,10.98,1.41,16.5,0,1.52-.17,2.88-.5,4.07-.33,1.19-1.66,2.12-3.98,2.78-2.21-.67-3.7-1.93-4.47-3.78-.77-1.86-.72-3.64.17-5.36l-10.44-78.7Z"/><path class="cls-1" d="M648.27,228.71c-.77-4.38-1.16-8.64-1.16-12.78s.3-8.36.91-12.64,1.49-8.74,2.65-13.35c1.16-4.62,2.51-9.59,4.06-14.93,0-1.05.33-2.02.99-2.93.66-.9,1.55-1.67,2.65-2.29,1.1-.62,2.26-1.12,3.48-1.5,1.21-.38,2.37-.57,3.48-.57,2.43,0,4.64.67,6.63,2,1.99,1.33,3.78,2.95,5.38,4.86,1.6,1.91,2.98,3.93,4.14,6.07,1.16,2.14,2.13,3.98,2.9,5.5.88,3.33,1.52,7.12,1.91,11.36.39,4.24.42,8.55.08,12.93-.33,4.38-1.1,8.69-2.32,12.93-1.22,4.24-2.93,8.12-5.14,11.64-2.21,3.52-5.05,6.48-8.53,8.86-3.48,2.38-7.6,3.86-12.35,4.43-2.54,0-4.47-.74-5.8-2.21-1.33-1.47-2.29-3.29-2.9-5.43-.61-2.14-.94-4.31-.99-6.5-.06-2.19-.08-4-.08-5.43ZM656.71,228.28c0,.95.03,1.86.09,2.71.05.86.17,1.69.33,2.5.17.81.39,1.67.66,2.57.27.91.63,1.93,1.08,3.07h1c2.65,0,4.91-.76,6.79-2.29,1.88-1.52,3.48-3.5,4.81-5.93s2.43-5.14,3.31-8.14c.88-3,1.57-5.95,2.07-8.86.5-2.9.83-5.62.99-8.14.17-2.52.25-4.55.25-6.07v-2.86c0-1.24-.06-2.64-.17-4.21-.11-1.57-.3-3.19-.58-4.86-.28-1.67-.69-3.19-1.24-4.57-.55-1.38-1.27-2.5-2.15-3.36-.89-.86-2.05-1.29-3.48-1.29-2.43-.66-4.5-.52-6.21.43-1.71.95-3.09,2.55-4.14,4.79-1.05,2.24-1.85,4.98-2.4,8.21-.55,3.24-.89,6.81-1,10.71-.11,3.91-.14,8.05-.08,12.43.06,4.38.08,8.76.08,13.14Z"/><path class="cls-1" d="M693.5,228.71c-.77-4.38-1.16-8.64-1.16-12.78s.3-8.36.91-12.64,1.49-8.74,2.65-13.35c1.16-4.62,2.51-9.59,4.06-14.93,0-1.05.33-2.02.99-2.93.66-.9,1.55-1.67,2.65-2.29,1.1-.62,2.26-1.12,3.48-1.5,1.21-.38,2.37-.57,3.48-.57,2.43,0,4.64.67,6.63,2,1.99,1.33,3.78,2.95,5.38,4.86,1.6,1.91,2.98,3.93,4.14,6.07,1.16,2.14,2.13,3.98,2.9,5.5.88,3.33,1.52,7.12,1.91,11.36.39,4.24.42,8.55.08,12.93-.33,4.38-1.1,8.69-2.32,12.93-1.22,4.24-2.93,8.12-5.14,11.64-2.21,3.52-5.05,6.48-8.53,8.86-3.48,2.38-7.6,3.86-12.35,4.43-2.54,0-4.47-.74-5.8-2.21-1.33-1.47-2.29-3.29-2.9-5.43-.61-2.14-.94-4.31-.99-6.5-.06-2.19-.08-4-.08-5.43ZM701.95,228.28c0,.95.03,1.86.09,2.71.05.86.17,1.69.33,2.5.17.81.39,1.67.66,2.57.27.91.63,1.93,1.08,3.07h1c2.65,0,4.91-.76,6.79-2.29,1.88-1.52,3.48-3.5,4.81-5.93s2.43-5.14,3.31-8.14c.88-3,1.57-5.95,2.07-8.86.5-2.9.83-5.62.99-8.14.17-2.52.25-4.55.25-6.07v-2.86c0-1.24-.06-2.64-.17-4.21-.11-1.57-.3-3.19-.58-4.86-.28-1.67-.69-3.19-1.24-4.57-.55-1.38-1.27-2.5-2.15-3.36-.89-.86-2.05-1.29-3.48-1.29-2.43-.66-4.5-.52-6.21.43-1.71.95-3.09,2.55-4.14,4.79-1.05,2.24-1.85,4.98-2.4,8.21-.55,3.24-.89,6.81-1,10.71-.11,3.91-.14,8.05-.08,12.43.06,4.38.08,8.76.08,13.14Z"/><path class="cls-1" d="M775.18,222.14c-1.1,2.19-2.51,4.71-4.23,7.57s-3.7,5.57-5.96,8.14c-2.27,2.57-4.89,4.76-7.87,6.57-2.98,1.81-6.3,2.71-9.94,2.71-1.66,0-2.96-.17-3.89-.5-.94-.33-1.77-.83-2.48-1.5-.72-.66-1.38-1.47-1.99-2.43-.61-.95-1.35-2-2.24-3.14-.33-4.66-.52-9.69-.58-15.07-.06-5.38.25-10.76.91-16.14.66-5.38,1.79-10.45,3.39-15.21,1.6-4.76,3.87-8.81,6.79-12.14,2.93-3.33,6.6-5.71,11.02-7.14,4.42-1.43,9.78-1.52,16.07-.28.33-2.66.39-6.24.17-10.71-.22-4.47-.55-9.19-.99-14.14-.44-4.95-.89-9.73-1.33-14.35-.44-4.62-.72-8.4-.83-11.36,0-.86.47-1.5,1.41-1.93.94-.43,1.96-.69,3.06-.79,1.1-.09,2.18-.09,3.23,0,1.05.1,1.74.24,2.07.43-.22,11.71-.28,23.21-.17,34.5.11,11.28.25,22.52.42,33.71.17,11.19.36,22.31.58,33.35.22,11.05.33,22.09.33,33.14,0,1.05-.08,2.16-.25,3.36-.17,1.19-1.13,1.79-2.9,1.79-.66,0-1.33-.17-1.99-.5-.66-.33-1.1-.83-1.33-1.5l-.5-36.42ZM768.06,180.72c-3.42-.19-6.6.98-9.53,3.5-2.93,2.52-5.47,5.78-7.62,9.78-2.15,4-3.89,8.4-5.22,13.21-1.33,4.81-2.13,9.43-2.4,13.85-.28,4.43.06,8.36,1,11.78.94,3.43,2.62,5.76,5.05,7,2.43,0,4.69-.83,6.79-2.5,2.1-1.66,4.03-3.78,5.8-6.35,1.77-2.57,3.31-5.45,4.64-8.64,1.33-3.19,2.46-6.26,3.4-9.21.94-2.95,1.66-5.64,2.15-8.07.5-2.43.75-4.26.75-5.5,0-.95.05-2.47.17-4.57.11-2.09.06-4.19-.17-6.28-.22-2.09-.69-3.95-1.41-5.57-.72-1.62-1.85-2.43-3.4-2.43Z"/><path class="cls-1" d="M796.06,240.99c.77-4.38,1.3-9.86,1.57-16.43.27-6.57.39-13.57.33-21-.06-7.43-.25-15.09-.58-23-.33-7.9-.77-15.4-1.33-22.5-.55-7.09-1.19-13.45-1.91-19.07-.72-5.62-1.46-10.04-2.24-13.28.99-.57,1.85-1.02,2.57-1.36.72-.33,1.58-.5,2.57-.5.77,0,1.43.12,1.99.36.55.24.99.74,1.33,1.5,2.21,18.66,3.73,37.47,4.56,56.42.83,18.95,1.46,37.8,1.91,56.56v3.5c0,1.48-.06,2.26-.17,2.36-1.55.67-2.93.98-4.14.93-1.22-.05-2.32-.33-3.31-.86-.99-.52-1.77-1.12-2.32-1.79-.55-.67-.83-1.29-.83-1.86Z"/><path class="cls-1" d="M820.74,217.42c-.55.1-1.38.24-2.48.43-1.11.19-2.27.24-3.48.14-1.22-.09-2.29-.38-3.23-.86-.94-.48-1.41-1.28-1.41-2.43,0-.66.17-1.14.5-1.43.33-.28.88-.71,1.66-1.28,2.43-1.71,4.5-3.93,6.21-6.64,1.71-2.71,3.29-5.62,4.72-8.71,1.43-3.09,2.95-6.19,4.56-9.28,1.6-3.09,3.45-5.88,5.55-8.36,2.1-2.47,4.69-4.47,7.79-6,3.09-1.52,6.9-2.24,11.43-2.14,1.88,0,3.97.38,6.3,1.14,2.32.76,4.47,1.79,6.46,3.07,1.99,1.29,3.64,2.84,4.97,4.64,1.33,1.81,1.99,3.81,1.99,6,.55.76.03,1.86-1.57,3.29-1.6,1.43-3.78,2.98-6.54,4.64-2.76,1.67-5.88,3.38-9.36,5.14-3.48,1.76-6.82,3.41-10.02,4.93-3.21,1.52-6.02,2.86-8.45,4-2.43,1.14-4.03,2-4.81,2.57-.55.95-.99,2.05-1.33,3.29-.33,1.24-.58,2.41-.75,3.5-.17,1.1-.28,2.1-.33,3-.06.91-.08,1.6-.08,2.07,0,1.81-.08,3.81-.25,6-.17,2.19-.06,4.26.33,6.21.39,1.95,1.3,3.57,2.73,4.86,1.43,1.29,3.86,1.93,7.29,1.93,3.64,0,7.07-.79,10.27-2.36,3.2-1.57,6.18-3.5,8.95-5.78,2.76-2.29,5.27-4.76,7.54-7.43,2.26-2.66,4.31-5.16,6.13-7.5,1.82-2.33,3.45-4.26,4.89-5.79,1.43-1.52,2.65-2.29,3.64-2.29,1.1,0,2.29.17,3.56.5,1.27.33,1.91,1.12,1.91,2.36,0,1.71-.8,3.76-2.4,6.14-1.6,2.38-3.7,4.91-6.29,7.57-2.6,2.67-5.58,5.31-8.95,7.93-3.37,2.62-6.77,4.95-10.19,7-3.43,2.05-6.79,3.71-10.11,5-3.31,1.28-6.24,1.93-8.78,1.93-4.97,0-8.73-1.05-11.27-3.14-2.54-2.09-4.33-4.71-5.38-7.86-1.05-3.14-1.6-6.5-1.66-10.07-.06-3.57-.14-6.88-.25-9.93ZM851.23,178.86c-1.88,0-3.87.79-5.96,2.36-2.1,1.57-4.06,3.48-5.88,5.71-1.82,2.24-3.31,4.52-4.47,6.86-1.16,2.33-1.74,4.26-1.74,5.78,1.66,0,4.06-.55,7.21-1.64,3.15-1.09,6.27-2.45,9.36-4.07,3.09-1.62,5.8-3.33,8.12-5.14,2.32-1.81,3.48-3.52,3.48-5.14,0-.86-.39-1.57-1.16-2.14s-1.69-1.05-2.73-1.43c-1.05-.38-2.13-.66-3.23-.86-1.1-.19-2.1-.28-2.98-.28Z"/></g></svg>