<?xml version="1.0" encoding="UTF-8"?><svg id="Layer_2" xmlns="http://www.w3.org/2000/svg" viewBox="0 0 743.68 698.45"><defs><style>.cls-1{fill:#fff;}</style></defs><g id="Layer_2-2"><ellipse class="cls-1" cx="371.84" cy="349.23" rx="371.84" ry="349.23"/><path d="M585.49,124.32l-127.77,73.72,83.48-77.91c21.56-18.82-10.97-51.04-33.16-36.49l-136.14,139.42c-2.02,1.58-4.29-.7-6.74-.9-9.83-.82-17.83.94-25.09,7.47-1.78,1.6-5.38,7.38-6.61,8.1-.66.39-5.92-.63-8.03-.5-7.63.49-15.08,4.41-19.85,9.88-1.28,1.47-3.25,5.75-4.03,6.23-2.25,1.36-8.06.63-11.52,1.43-17.08,3.93-28.92,30.33-14.42,42.59l-46.38,27.09c-4.13,2.41-7.82,5.44-10.91,8.97l-30.47,34.71c-1.65,5.64,1.14,9.51,7.53,8.91,10.29-.96,29.71-8.46,41.07-13.01,4.91-1.97,9.57-4.44,13.9-7.38l43.3-29.45c-5.95,21.81-13.67,44.55.2,65.29,4.75,7.1,13.66,13.16,17.07,20.49,13.99,30.14-23.62,46.95-27.44,73.44-3.53,24.47,6.6,27.13,16.04,45.04,16.81,31.87-24.24,37.84-26.62,60.83-.39,3.79.03,8.46,4.61,9.78,8.94,2.56,8.38-9.15,10.99-13.83,5.43-9.74,17.99-13.19,24-26.45,15.81-34.94-19.02-43.6-15.98-72.01,2.17-20.26,28.31-34.97,30.37-56.98,3.27-34.9-24.93-37.4-27.53-62.39-2.71-26.03,22.56-61.42,8.19-83.4-6.3-9.64-19.72-10.18-18.64,2.8-13.42-2.95-5.2-21.58,6.25-23.07,17.1-2.23,31.95,11.74,33.58,27.1,2.55,24.14-14.09,45.5-8.26,71,6.45,28.21,41.79,42,30.26,74.34-4.06,11.37-14.77,21.13-19.95,32.03-20.09,42.28,27.11,57.32,15.07,90.76-4.36,12.13-17.76,19.64-20.63,32.28-1.01,4.45-1.88,12.24,5.02,12.66,8.03.49,7.95-10.29,10.46-15.05,4.12-7.82,12.69-13.16,16.67-22.64,17.92-42.64-31.83-56.69-14.12-93.43,10.38-21.55,25.43-26.97,22.37-55.37-2.71-25.15-29.16-37.66-32.65-60.19-2.79-17.98,6.17-33.47,8.8-50.62,3.51-22.93-5.03-43.34-28.17-53.2,13.18-15.94,36.61.68,43.77,14.1,18.09,33.88-25.06,67.22,2.84,105.11,7.94,10.79,19.3,16.22,24.51,29.53,13.29,33.93-22.51,56.36-14.77,90.47,5.61,24.74,32.35,33.3,23.31,62.78-4.39,14.33-18.03,25.72-13.85,42.34,1.8,7.14,11.81,8.98,12.89.4.49-3.91-.58-8.29.21-12.28,1.71-8.65,12.25-18.67,14.69-30.74,7.89-39.07-30.67-47.68-24.15-81.47,4.63-23.98,22.45-36.52,17.68-65.16-3.34-20.05-13.82-25.19-26-38.83-24.19-27.09-1.55-50.08.47-78.85,1.46-20.67-9.09-42.05-29.38-51.22,4.01-8.46,12.55-9.77,21.21-6.1,14.73,6.22,24.82,24.99,26.19,39.54,2.59,27.54-21.16,56.98-6.19,84.2,8.64,15.71,27.3,19.88,33.44,38.07,11.73,34.76-26.33,60.35-12.08,95.97,5.72,14.29,23.95,26.69,26.35,41.17,3.52,21.28-13.28,35.45-4.97,56.33,5.57,14,20.7,11.87,17.33,1.53-.45-1.39-3.56-3.6-4.73-6.24-5.71-12.84,4.4-24.17,5.76-36.8,4.72-43.78-41.34-46.56-26.71-90.11,7.12-21.21,17.24-30.49,14.23-55.62-3.73-31.18-37.63-38.07-40.42-60.91-2.68-21.97,15.13-46.78,10.54-69.28l204-108.48c18.39-13.08-3.45-45.65-24.28-41.5ZM216.07,355.63c.99-2.94,8.51-10.94,11.03-13.55.31-.32.85-.25,1.07.13l5.16,8.95c.35.61.12,1.38-.51,1.73-2.95,1.62-10.73,3.49-15.96,3.68-.53.02-.95-.47-.79-.94ZM299.33,299.59l-.2,7.82-54.82,37.19-6.25-9.35.49-1.41,60.78-34.26ZM575.25,169.68l-8.4,4.42c-2.49-7.97-8.18-13.92-12.15-17.29l8.24-4.84c3.04,2.25,10.69,8.73,12.32,17.72ZM487.04,123.53l7.99-8.2c4.8,1.6,13.68,5.55,17.71,13.5-2.56,2.39-5.13,4.77-7.69,7.16-5.22-6.76-12.8-10.54-18.01-12.46ZM515.55,94.25c7.77-6.72,24.82,7.87,17.09,16.05-4.6,4.27-9.18,8.55-13.78,12.82-4.68-7.36-12.2-11.65-17.85-13.95l14.53-14.92ZM392.72,239.89l-9.91-9.33,98.15-100.78c3.6,1.01,12.99,4.27,18.12,11.77-23.98,22.35-47.95,44.7-72.05,66.87-11.4,10.5-23.29,20.59-34.31,31.47ZM402.72,260.39l-4.64-10.41.83-1.59,148.42-87.26c3.07,2.32,10.18,8.48,12.03,16.9l-156.64,82.36ZM603.62,153.76l-1.78,1.94-19.05,10.02c-2.41-8.4-8.41-14.65-12.49-18.08l17.62-10.36c2.86-1.52,5.69-.54,7.94,1.4,2.72,2.35,8.85,11.71,7.77,15.09Z"/></g></svg>